{
	"asset":{
		"generator":"Khronos glTF Blender I/O v4.5.47",
		"version":"2.0"
	},
	"scene":0,
	"scenes":[
		{
			"name":"Scene",
			"nodes":[
				0
			]
		}
	],
	"nodes":[
		{
			"mesh":0,
			"name":"result_Img_256 (1)",
			"rotation":[
				0.70710688829422,
				0,
				0,
				0.7071066498756409
			],
			"translation":[
				0,
				0.9579005241394043,
				0
			]
		}
	],
	"materials":[
		{
			"doubleSided":true,
			"name":"Material.001",
			"pbrMetallicRoughness":{
				"baseColorTexture":{
					"index":0
				},
				"metallicFactor":0
			}
		}
	],
	"meshes":[
		{
			"name":"result_Img_256 (1)",
			"primitives":[
				{
					"attributes":{
						"POSITION":0,
						"NORMAL":1,
						"TEXCOORD_0":2,
						"TEXCOORD_1":3,
						"TEXCOORD_2":4
					},
					"indices":5,
					"material":0
				}
			]
		}
	],
	"textures":[
		{
			"sampler":0,
			"source":0
		}
	],
	"images":[
		{
			"mimeType":"image/png",
			"name":"BrainTexture",
			"uri":"BrainTexture.png"
		}
	],
	"accessors":[
		{
			"bufferView":0,
			"componentType":5126,
			"count":70413,
			"max":[
				0.3158999979496002,
				0.17260000109672546,
				0.9578999876976013
			],
			"min":[
				-0.3003000020980835,
				-0.25119999051094055,
				-0.878600001335144
			],
			"type":"VEC3"
		},
		{
			"bufferView":1,
			"componentType":5126,
			"count":70413,
			"type":"VEC3"
		},
		{
			"bufferView":2,
			"componentType":5126,
			"count":70413,
			"type":"VEC2"
		},
		{
			"bufferView":3,
			"componentType":5126,
			"count":70413,
			"type":"VEC2"
		},
		{
			"bufferView":4,
			"componentType":5126,
			"count":70413,
			"type":"VEC2"
		},
		{
			"bufferView":5,
			"componentType":5125,
			"count":320574,
			"type":"SCALAR"
		}
	],
	"bufferViews":[
		{
			"buffer":0,
			"byteLength":844956,
			"byteOffset":0,
			"target":34962
		},
		{
			"buffer":0,
			"byteLength":844956,
			"byteOffset":844956,
			"target":34962
		},
		{
			"buffer":0,
			"byteLength":563304,
			"byteOffset":1689912,
			"target":34962
		},
		{
			"buffer":0,
			"byteLength":563304,
			"byteOffset":2253216,
			"target":34962
		},
		{
			"buffer":0,
			"byteLength":563304,
			"byteOffset":2816520,
			"target":34962
		},
		{
			"buffer":0,
			"byteLength":1282296,
			"byteOffset":3379824,
			"target":34963
		}
	],
	"samplers":[
		{
			"magFilter":9729,
			"minFilter":9987
		}
	],
	"buffers":[
		{
			"byteLength":4662120,
			"uri":"scene.bin"
		}
	]
}
